<mxfile host="app.diagrams.net" modified="2021-09-24T01:50:59.686Z" agent="5.0 (Windows NT 10.0; Win64; x64) AppleWebKit/537.36 (KHTML, like Gecko) Chrome/93.0.4577.82 Safari/537.36" etag="soqCvmfACs5cpX-EwE2_" version="15.2.9" type="github">
  <diagram id="XA9AK6LGz56H8NlrQgxF" name="Page-1">
    <mxGraphModel dx="1449" dy="562" grid="1" gridSize="10" guides="1" tooltips="1" connect="1" arrows="1" fold="1" page="1" pageScale="1" pageWidth="850" pageHeight="1100" math="0" shadow="0">
      <root>
        <mxCell id="0" />
        <mxCell id="1" parent="0" />
        <mxCell id="ZFUKz_iTOAyGBr-Abnic-1" value="" style="rounded=1;whiteSpace=wrap;html=1;" vertex="1" parent="1">
          <mxGeometry x="110" y="150" width="340" height="240" as="geometry" />
        </mxCell>
        <mxCell id="ZFUKz_iTOAyGBr-Abnic-3" value="LINUX OS" style="text;html=1;strokeColor=none;fillColor=none;align=center;verticalAlign=middle;whiteSpace=wrap;rounded=0;" vertex="1" parent="1">
          <mxGeometry x="110" y="120" width="90" height="20" as="geometry" />
        </mxCell>
        <mxCell id="ZFUKz_iTOAyGBr-Abnic-4" value="" style="rounded=1;whiteSpace=wrap;html=1;" vertex="1" parent="1">
          <mxGeometry x="200" y="230" width="180" height="120" as="geometry" />
        </mxCell>
        <mxCell id="ZFUKz_iTOAyGBr-Abnic-5" value="APP1" style="rounded=1;whiteSpace=wrap;html=1;" vertex="1" parent="1">
          <mxGeometry x="230" y="260" width="120" height="60" as="geometry" />
        </mxCell>
        <mxCell id="ZFUKz_iTOAyGBr-Abnic-6" value="TOMCAT" style="text;html=1;strokeColor=none;fillColor=none;align=center;verticalAlign=middle;whiteSpace=wrap;rounded=0;" vertex="1" parent="1">
          <mxGeometry x="200" y="200" width="40" height="20" as="geometry" />
        </mxCell>
        <mxCell id="ZFUKz_iTOAyGBr-Abnic-7" value="ip:8080" style="rounded=1;whiteSpace=wrap;html=1;" vertex="1" parent="1">
          <mxGeometry x="550" y="30" width="210" height="60" as="geometry" />
        </mxCell>
        <mxCell id="ZFUKz_iTOAyGBr-Abnic-8" value="jenkins&amp;nbsp;" style="rounded=1;whiteSpace=wrap;html=1;" vertex="1" parent="1">
          <mxGeometry x="305" y="160" width="120" height="60" as="geometry" />
        </mxCell>
        <mxCell id="ZFUKz_iTOAyGBr-Abnic-9" value="ip:8081" style="rounded=1;whiteSpace=wrap;html=1;" vertex="1" parent="1">
          <mxGeometry x="560" y="110" width="200" height="60" as="geometry" />
        </mxCell>
        <mxCell id="ZFUKz_iTOAyGBr-Abnic-10" value="" style="rounded=1;whiteSpace=wrap;html=1;" vertex="1" parent="1">
          <mxGeometry x="120" y="720" width="465" height="320" as="geometry" />
        </mxCell>
        <mxCell id="ZFUKz_iTOAyGBr-Abnic-11" value="Linux os" style="text;html=1;strokeColor=none;fillColor=none;align=center;verticalAlign=middle;whiteSpace=wrap;rounded=0;" vertex="1" parent="1">
          <mxGeometry x="110" y="690" width="60" height="20" as="geometry" />
        </mxCell>
        <mxCell id="ZFUKz_iTOAyGBr-Abnic-12" value="t" style="rounded=1;whiteSpace=wrap;html=1;" vertex="1" parent="1">
          <mxGeometry x="216.25" y="800" width="297.5" height="195" as="geometry" />
        </mxCell>
        <mxCell id="ZFUKz_iTOAyGBr-Abnic-13" value="app" style="rounded=1;whiteSpace=wrap;html=1;" vertex="1" parent="1">
          <mxGeometry x="300" y="868" width="120" height="60" as="geometry" />
        </mxCell>
        <mxCell id="ZFUKz_iTOAyGBr-Abnic-14" value="tomcat" style="text;html=1;strokeColor=none;fillColor=none;align=center;verticalAlign=middle;whiteSpace=wrap;rounded=0;" vertex="1" parent="1">
          <mxGeometry x="300" y="830" width="40" height="20" as="geometry" />
        </mxCell>
        <mxCell id="ZFUKz_iTOAyGBr-Abnic-15" value="ip:8081" style="rounded=1;whiteSpace=wrap;html=1;" vertex="1" parent="1">
          <mxGeometry x="585" y="580" width="205" height="60" as="geometry" />
        </mxCell>
        <mxCell id="ZFUKz_iTOAyGBr-Abnic-16" value="conatiner 1" style="text;html=1;strokeColor=none;fillColor=none;align=center;verticalAlign=middle;whiteSpace=wrap;rounded=0;" vertex="1" parent="1">
          <mxGeometry x="240" y="770" width="80" height="20" as="geometry" />
        </mxCell>
        <mxCell id="ZFUKz_iTOAyGBr-Abnic-17" value="expose" style="text;html=1;strokeColor=none;fillColor=none;align=center;verticalAlign=middle;whiteSpace=wrap;rounded=0;" vertex="1" parent="1">
          <mxGeometry x="360" y="780" width="40" height="20" as="geometry" />
        </mxCell>
        <mxCell id="ZFUKz_iTOAyGBr-Abnic-18" value="8080" style="text;html=1;strokeColor=none;fillColor=none;align=center;verticalAlign=middle;whiteSpace=wrap;rounded=0;" vertex="1" parent="1">
          <mxGeometry x="400" y="830" width="40" height="20" as="geometry" />
        </mxCell>
        <mxCell id="ZFUKz_iTOAyGBr-Abnic-19" value="8081" style="text;html=1;strokeColor=none;fillColor=none;align=center;verticalAlign=middle;whiteSpace=wrap;rounded=0;" vertex="1" parent="1">
          <mxGeometry x="176" y="740" width="40" height="20" as="geometry" />
        </mxCell>
        <mxCell id="ZFUKz_iTOAyGBr-Abnic-20" value="map" style="text;html=1;strokeColor=none;fillColor=none;align=center;verticalAlign=middle;whiteSpace=wrap;rounded=0;" vertex="1" parent="1">
          <mxGeometry x="216.25" y="740" width="40" height="20" as="geometry" />
        </mxCell>
        <mxCell id="ZFUKz_iTOAyGBr-Abnic-21" value="" style="endArrow=none;html=1;entryX=1;entryY=0.75;entryDx=0;entryDy=0;" edge="1" parent="1" target="ZFUKz_iTOAyGBr-Abnic-20">
          <mxGeometry width="50" height="50" relative="1" as="geometry">
            <mxPoint x="380" y="790" as="sourcePoint" />
            <mxPoint x="410" y="750" as="targetPoint" />
          </mxGeometry>
        </mxCell>
        <mxCell id="ZFUKz_iTOAyGBr-Abnic-22" value="" style="endArrow=none;html=1;" edge="1" parent="1">
          <mxGeometry width="50" height="50" relative="1" as="geometry">
            <mxPoint x="250" y="210" as="sourcePoint" />
            <mxPoint x="540" y="50" as="targetPoint" />
          </mxGeometry>
        </mxCell>
        <mxCell id="ZFUKz_iTOAyGBr-Abnic-23" value="" style="endArrow=none;html=1;" edge="1" parent="1" target="ZFUKz_iTOAyGBr-Abnic-9">
          <mxGeometry width="50" height="50" relative="1" as="geometry">
            <mxPoint x="430" y="200" as="sourcePoint" />
            <mxPoint x="480" y="150" as="targetPoint" />
          </mxGeometry>
        </mxCell>
      </root>
    </mxGraphModel>
  </diagram>
</mxfile>
